<?xml version="1.0" encoding="utf-8"?>
<!-- Generator: Adobe Illustrator 27.1.1, SVG Export Plug-In . SVG Version: 6.00 Build 0)  -->
<svg version="1.1" id="Layer_1" xmlns="http://www.w3.org/2000/svg" xmlns:xlink="http://www.w3.org/1999/xlink" x="0px" y="0px"
	 viewBox="0 0 250.6 297.5" style="enable-background:new 0 0 250.6 297.5;" xml:space="preserve">
<style type="text/css">
	.st0{font-family:'ArialMT';}
	.st1{font-size:12px;}
	.st2{fill:#FFFFFF;}
	.st3{font-family:'Poppins-Regular';}
	.st4{font-size:18px;}
	.st5{fill:#BBD531;}
	.st6{fill:#EE3F27;}
	.st7{fill:none;}
</style>
<text transform="matrix(1 0 0 1 7.012550e-05 0)" class="st0 st1"> </text>
<text transform="matrix(1 0 0 1 4.2009 -8.1624)" class="st2 st3 st4">Final</text>
<text transform="matrix(1 0 0 1 -1404.7446 0)" class="st0 st1"> </text>
<text transform="matrix(1 0 0 1 -1404.7446 0)" class="st0 st1"> </text>
<text transform="matrix(1 0 0 1 -1404.7446 0)" class="st0 st1"> </text>
<text transform="matrix(1 0 0 1 -1404.7446 0)" class="st0 st1"> </text>
<text transform="matrix(1 0 0 1 -1404.7446 0)" class="st0 st1"> </text>
<text transform="matrix(1 0 0 1 -1404.7446 0)" class="st0 st1"> </text>
<text transform="matrix(1 0 0 1 -1404.7446 0)" class="st0 st1"> </text>
<text transform="matrix(1 0 0 1 7.012550e-05 0)" class="st0 st1"> </text>
<text transform="matrix(1 0 0 1 7.012550e-05 0)" class="st0 st1"> </text>
<text transform="matrix(1 0 0 1 7.012550e-05 0)" class="st0 st1"> </text>
<text transform="matrix(1 0 0 1 7.012550e-05 0)" class="st0 st1"> </text>
<text transform="matrix(1 0 0 1 7.012550e-05 0)" class="st0 st1"> </text>
<text transform="matrix(1 0 0 1 7.012550e-05 0)" class="st0 st1"> </text>
<text transform="matrix(1 0 0 1 7.012550e-05 0)" class="st0 st1"> </text>
<text transform="matrix(1 0 0 1 7.012550e-05 0)" class="st0 st1"> </text>
<text transform="matrix(1 0 0 1 7.012550e-05 0)" class="st0 st1"> </text>
<text transform="matrix(1 0 0 1 7.012550e-05 0)" class="st0 st1"> </text>
<text transform="matrix(1 0 0 1 7.012550e-05 0)" class="st0 st1"> </text>
<text transform="matrix(1 0 0 1 7.012550e-05 0)" class="st0 st1"> </text>
<text transform="matrix(1 0 0 1 7.012550e-05 0)" class="st0 st1"> </text>
<text transform="matrix(1 0 0 1 7.012550e-05 0)" class="st0 st1"> </text>
<g>
	<ellipse id="Ellipse_255_00000165943222586526493810000010371158398578354049_" cx="126.9" cy="159" rx="96" ry="93.6"/>
	<path id="Path_1159_00000085230060058956827870000015461238697661693857_" class="st5" d="M146.2,129.5l-7.1,6.8
		c-9.7-9.4-19.6-18.6-29-28.3c-5.9-6.1-6.8-15.3-2.6-22.6c4.2-7.3,12.5-11.1,20.7-9.9c8.7,1.2,15.6,7.8,17,16.3
		c1.2,5.4-0.2,11.1-3.8,15.3c-2.6,2.8-5.4,5.4-8.5,7.8l-6.6-6.4c1.9-1.9,4.2-3.8,6.4-6.1c4-4,4-10.4,0-14.4
		c-0.2-0.2-0.5-0.2-0.5-0.5c-4.5-3.8-11.1-3.5-15.1,0.9c-3.8,4-3.5,10.4,0.5,14.1c8.7,8.5,17.4,17,26.2,25.5
		C144.5,128.5,145.3,129,146.2,129.5z"/>
	<path id="Path_1161_00000127016857243076286260000003416942880389502138_" class="st5" d="M148.3,188.2l7.3-6.8
		c1.2,1.4,2.4,3.1,3.8,4.5c4.2,4.2,11.1,4.5,15.3,0.2c4-3.8,4.2-10.1,0.5-14.4c-0.2-0.2-0.5-0.5-0.7-0.7c-8-7.8-16-15.6-24-23.3
		c-0.7-0.7-1.7-1.4-2.6-1.9l7.3-6.6c0.5,0.2,0.7,0.5,0.9,0.7c8.5,8.3,16.7,16.3,25.2,24.5c5.7,5,7.5,13,5.2,20.3
		c-2.1,7.3-8.3,12.5-15.8,13.4c-5.4,1.2-11.3-0.2-15.6-3.8C152.8,192.7,150.7,190.3,148.3,188.2z"/>
	<path id="Path_1163_00000013913709696116550450000016428020041088149416_" class="st5" d="M73.3,160.4l6.8,6.6
		c-1.4,1.4-3.1,2.6-4.5,4c-4.2,3.8-4.7,10.1-0.9,14.4c0.2,0.2,0.5,0.5,0.5,0.5c4.2,4.2,11.1,4.2,15.3,0c0,0,0,0,0.2-0.2
		c7.8-7.5,15.8-15.3,23.6-22.9c0.9-0.7,1.7-1.9,2.4-2.6l7.1,7.3c-2.6,2.4-5.7,5.2-8.7,8.3c-5.7,5.4-11.3,11.1-17,16.5
		c-5.4,5.9-13.9,8-21.5,5.2c-7.8-2.1-13.2-9-13.7-17c-0.2-2.4,0-5,0.7-7.3C65.1,167.4,69.3,163.9,73.3,160.4z"/>
	<g>
		<path id="Path_1160_00000114070336955903046810000000042777009406229135_" class="st6" d="M117,202.8l7.1,6.4
			c-2.1,2.4-4.2,4.5-6.4,6.6c-4,4-4,10.6,0,14.6c0.7,0.7,1.7,1.4,2.4,1.9c4.5,2.4,10.1,1.4,13.7-2.6c3.3-4,3.1-10.1-0.7-13.9
			c-8-7.8-16-15.6-24-23.3c-1.4-1.4-2.8-2.6-4.5-3.8l7.3-7.1c3.8,3.8,7.8,7.8,11.6,11.6c5.4,5.4,11.1,10.6,16.5,16
			c5.4,5,7.3,12.5,5.2,19.6c-1.9,7.1-8,12.5-15.3,13.9c-8.5,1.9-17.2-1.9-21.7-9.2s-3.5-16.5,1.9-23.1
			C112,207.5,114.4,205.4,117,202.8z"/>
		<path id="Path_1162_00000183967602645549945690000008717766416054907538_" class="st6" d="M177.3,158l-7.3-7.3
			c1.4-1.2,3.1-2.4,4.7-3.8c4.2-3.8,4.5-10.1,0.7-14.4c-0.2-0.2-0.5-0.5-0.7-0.7c-4.2-4.2-11.1-4-15.3,0.2
			c-7.8,7.5-15.8,15.3-23.6,22.9c-0.9,0.9-1.7,1.9-2.4,3.1l-7.1-7.5c2.6-2.4,5.4-5,8.3-7.5c6.1-6.1,12.3-12.3,18.6-18.2
			c8.3-7.8,21-7.3,28.8,0.9c2.4,2.6,4,5.7,5,9c1.4,4.7,0.7,9.7-1.9,13.7C182.7,151.9,180.1,155.2,177.3,158z"/>
		<path id="Path_1167_00000133504100488055386530000014057835859501197214_" class="st6" d="M101.9,172.2l-6.8,7.1
			c-2.8-2.8-5.7-5.7-8.5-8.5c-5.9-5.7-11.8-11.3-17.4-17.2c-7.8-7.3-8.3-19.6-0.9-27.4c0.2-0.2,0.5-0.5,0.7-0.7c8-7.8,21-7.8,29,0
			l4.5,4.2l-6.8,6.6c-1.2-1.2-2.6-2.4-3.8-3.5c-4-4.5-11.1-5-15.6-0.7c0,0,0,0-0.2,0.2c-4.5,4.2-4.2,10.6,0.5,15.3
			C84.7,155.7,93.4,163.9,101.9,172.2z"/>
		<path id="Path_1164_00000000216629144702684020000004242120272194039451_" class="st6" d="M133,200.5l-6.1-6.1l34.4-33.5l6.1,6.1
			L133,200.5z"/>
		<path id="Path_1165_00000026125919758555728190000014053578048576968630_" class="st6" d="M145.5,173.1l-5.9,5.7L105.2,145
			l5.9-5.7L145.5,173.1z"/>
	</g>
	<path id="Path_1166_00000121277879247115775480000007828478197504173738_" class="st5" d="M88.9,157.3l-6.4-6.4l34.4-33.2l6.1,6.4
		C112,134.9,100.5,146,88.9,157.3z"/>
	<path id="SVGID_x5F_1_x5F__00000171715222710004785480000005774271421731210393_" class="st7" d="M125.2,45.3
		c64.4,0,116.7,50.9,116.7,113.6s-52.3,113.6-116.7,113.6S8.5,221.7,8.5,159S60.8,45.3,125.2,45.3z"/>
	
		<path id="SVGID_x5F_00000096759658115782672760000013361396129863694748_x5F__00000163037581947925432890000002269229122955668608_" class="st7" d="
		M126.9,46.7c63.7,0,115.1,50.2,115.1,112.2s-51.4,112.2-115.1,112.2S11.8,221,11.8,159S63.2,46.7,126.9,46.7z"/>
	<g>
		<path d="M23.5,98.3l6.7,4.1l-1.4,2.3L11.7,94.1l3.9-6.3c1.2-1.9,2.5-3,4.2-3.5c1.6-0.5,3.2-0.2,4.8,0.8c1.7,1,2.6,2.3,2.9,3.9
			c0.3,1.6-0.2,3.4-1.4,5.3L23.5,98.3z M21.6,97.1l2.5-4.1c0.7-1.2,1-2.3,0.9-3.3c-0.2-1-0.8-1.8-1.9-2.5c-1-0.6-2-0.8-3-0.6
			c-1,0.3-1.9,0.9-2.6,2.1L14.9,93L21.6,97.1z"/>
		<path d="M51,68.7l-6.1,5.8l2.2,5.1l-2,1.9L37,61.6l1.7-1.6L58,69.4l-2,1.9L51,68.7z M44,72.4l5-4.7l-8.9-4.5L44,72.4z"/>
		<path d="M82.3,47.5c0.7,2,0.8,3.8,0.1,5.5c-0.7,1.6-2,2.9-3.9,3.9c-2.1,1.1-4.2,1.2-6.2,0.3c-2-0.9-3.7-2.6-5-5.1l-0.9-1.7
			c-0.8-1.7-1.3-3.3-1.3-4.9c0-1.6,0.3-3,1-4.2c0.7-1.2,1.8-2.2,3.3-2.9c1.9-1,3.7-1.2,5.4-0.7c1.7,0.5,3.1,1.6,4.3,3.4l-2.4,1.2
			c-0.9-1.3-1.9-2.1-2.9-2.4c-1-0.3-2.1-0.1-3.4,0.5c-1.5,0.8-2.4,1.9-2.7,3.5c-0.3,1.6,0.1,3.4,1.1,5.4l0.9,1.7
			c1,1.9,2.2,3.3,3.6,4c1.4,0.7,2.8,0.7,4.3,0c1.3-0.7,2.2-1.5,2.6-2.4c0.4-1,0.3-2.2-0.2-3.8L82.3,47.5z"/>
		<path d="M105.4,37.5l-1.9,3l1.3,6.7l-2.6,0.5l-3.8-19.8l2.6-0.5l1.9,9.8l6.9-11.4l3.1-0.6l-6.1,10.2l10.5,9.4l-3.1,0.6L105.4,37.5
			z"/>
		<path d="M145.4,40.2l-8.4-0.9l-2.4,5l-2.7-0.3l9.7-19.2l2.3,0.2l5.6,20.8l-2.7-0.3L145.4,40.2z M138,37.3l6.8,0.7l-2.4-9.7
			L138,37.3z"/>
		<path d="M175.7,45.7l-4.4-1.8l-3.1,7.5l-2.5-1l7.5-18.6l6.2,2.5c2.1,0.8,3.5,2,4.3,3.4c0.7,1.4,0.7,3,0,4.9
			c-0.5,1.2-1.2,2-2.2,2.7c-1,0.6-2.1,0.9-3.4,0.9l1.2,9.7l-0.1,0.2l-2.6-1.1L175.7,45.7z M172.1,42l3.8,1.5
			c1.2,0.5,2.3,0.6,3.3,0.2c1-0.3,1.7-1,2.1-2.1c0.5-1.2,0.5-2.2,0-3.1c-0.4-0.9-1.3-1.6-2.6-2.1l-3.8-1.5L172.1,42z"/>
		<path d="M209.7,51.8l-5.8,16.7l15.7-8.1l2.6,2.3L209,77.9l-2-1.7l5.1-5.9l5.7-6.2l-15.7,8l-1.5-1.3l5.7-16.6l-5.3,6.5l-5.1,5.9
			l-2-1.7l13.2-15.2L209.7,51.8z"/>
		<path d="M230.9,99.7l-4.3-7.3l-5.5,1l-1.4-2.4l21.2-3.6l1.2,2l-13.5,16.8l-1.4-2.3L230.9,99.7z M228.9,92l3.5,5.9l6.4-7.7
			L228.9,92z"/>
	</g>
</g>
<text transform="matrix(1 0 0 1 7.012550e-05 0)" class="st0 st1"> </text>
</svg>
